# xmcd
#
# Track frame offsets: 
#        182
#        22197
#        42132
#        62932
#        84690
#        110550
#        122317
#        134750
#        155927
#        177007
#        191977
#        224057
#        250462
#        271080
#        290607
#
# Disc length: 4191 seconds
#
# Revision: 2
# Processed by: cddbd v1.5.2PL0 Copyright (c) Steve Scherf et al.
# Submitted via: ExactAudioCopyFreeDBPlugin 1.0
#
DISCID=f2105d0f
DTITLE=Mick Abrahams' Blodwyn Pig - Pig In The Middle
DYEAR=1996
DGENRE=Blues
TTITLE0=Raining Again
TTITLE1=You Got It Wrong
TTITLE2=Going Down
TTITLE3=Whisky Dreams
TTITLE4=Goodbye
TTITLE5=I'm Bored
TTITLE6=Modern Day TV blues
TTITLE7=Mo' Bad News
TTITLE8=Hard Wind
TTITLE9=Fire In The Hole
TTITLE10=Nervous Blues
TTITLE11=The Mechanics (bonus)
TTITLE12=The Mechanics (bonus)
TTITLE13=Jackie Lynton (bonus)
TTITLE14=Jackie Lynton (bonus)
EXTD=
EXTT0=
EXTT1=
EXTT2=
EXTT3=
EXTT4=
EXTT5=
EXTT6=
EXTT7=
EXTT8=
EXTT9=
EXTT10=
EXTT11=
EXTT12=
EXTT13=
EXTT14=
PLAYORDER=
